<svg width="150" height="22" viewBox="0 0 150 22" fill="none" xmlns="http://www.w3.org/2000/svg">
<g clip-path="url(#clip0_104_14)">
<path d="M41.0274 18.5867L41.0293 18.5862L40.3654 21.8735H23.9005C23.9005 21.8735 24.299 19.7241 24.4317 18.8391C24.5644 18.0804 24.5645 17.5747 24.5645 16.0575V5.43676C24.5645 5.05839 24.5314 4.68002 24.4983 4.30165L24.4981 4.29888L24.4978 4.29587C24.4648 3.9175 24.4317 3.53921 24.4317 3.16092C24.4317 3.11099 24.4294 3.06329 24.4253 3.01745C24.4199 2.95518 24.4114 2.89637 24.4013 2.84042C24.3974 2.81913 24.3933 2.79821 24.3891 2.77761C24.3784 2.72598 24.3668 2.67667 24.3555 2.62905L24.3423 2.57303C24.3348 2.54077 24.3277 2.50921 24.3217 2.47803C24.3151 2.44462 24.3097 2.41174 24.3056 2.37918C24.3038 2.36444 24.3024 2.34977 24.3012 2.33511C24.2998 2.31535 24.299 2.2956 24.299 2.27584C24.2882 2.19435 24.2775 2.11448 24.2667 2.03623C24.2561 1.95929 24.2454 1.88397 24.2347 1.81019C23.9873 2.27777 23.7266 2.7932 23.4431 3.35353L23.2162 3.8019C22.9758 4.27611 22.7186 4.77942 22.44 5.31028C22.1553 5.85255 21.9086 6.35849 21.6798 6.82799L21.6791 6.82915C21.6135 6.96397 21.5492 7.0957 21.4861 7.2245C21.3589 7.48364 21.2355 7.73066 21.1122 7.96549L15.9337 19.5977L16.8632 21.747H10.0913L3.98342 7.7126C3.79824 7.30962 3.61832 6.91165 3.44165 6.5207C2.7313 4.94904 2.07211 3.49082 1.32781 2.27584C0.796652 1.39077 0.398326 0.758589 0 0.126406H8.49799C8.49799 0.126406 8.49799 0.379294 8.63074 0.758589C8.89632 2.02295 9.29465 3.54021 9.95855 5.18387C10.2241 6.06894 10.6225 7.08042 11.0208 8.0919L14.6059 16.5632L18.191 7.7126C18.7221 6.32183 19.386 4.55169 20.0499 2.65514L20.9793 0.126406H23.8291C23.8095 0.0826499 23.789 0.0405147 23.7678 0H40.0998L40.8965 3.28732C40.7325 3.26502 40.5809 3.24272 40.4292 3.22041C39.7216 3.11631 39.0141 3.01221 37.0459 2.90803C36.8336 2.90803 36.5841 2.90479 36.3075 2.89938C35.991 2.89321 35.6392 2.8841 35.2675 2.87376L34.4854 2.85107C33.3442 2.81751 32.1231 2.78162 31.2035 2.78162V9.10345C33.4608 9.10345 35.4525 8.97697 37.0459 8.85056C37.42 8.85056 37.7519 8.81043 38.0417 8.7754C38.2662 8.74823 38.4654 8.72416 38.6393 8.72416H39.3032L38.3737 12.0115C37.6326 11.9528 37.0925 11.8939 36.5531 11.8352L36.5476 11.8345C35.9292 11.7671 35.3108 11.6996 34.3903 11.6322C34.1228 11.6322 33.7909 11.6117 33.3944 11.5872C32.8062 11.5508 32.0759 11.5057 31.2035 11.5057V19.2184C33.592 19.2184 36.113 19.0921 38.6341 18.9657L38.6393 18.9655C39.7004 18.8392 40.3641 18.7129 41.0274 18.5867Z" fill="white"/>
<path fill-rule="evenodd" clip-rule="evenodd" d="M58.9546 11.1264C59.0874 11.1264 59.0874 11.1264 59.2202 10.9999C60.1497 10.6206 61.0791 10.1149 61.8758 9.48275C62.8052 8.59767 63.3364 7.5862 63.3364 6.32183C63.3364 5.05746 63.0708 3.9195 62.6725 3.16092C62.1413 2.27584 61.4775 1.64366 60.548 1.26437C59.7513 0.884993 58.689 0.505698 57.6268 0.379292C56.4318 0.252809 55.104 0.126404 53.6434 0.126404H42.4899C42.7555 0.632181 42.8882 1.39077 43.021 2.40225C43.2865 4.17239 43.2865 5.81605 43.2865 7.33331V16.1839C43.2865 17.7011 43.2865 18.2068 43.1538 18.9655C43.021 19.8505 42.6226 21.9999 42.6226 21.9999H50.7223C50.5895 21.4942 50.4567 20.7356 50.3239 19.5977C50.0583 17.8275 50.0583 16.3103 50.0583 14.6666V12.1379H51.7845C53.3778 12.1379 54.5729 12.6437 55.3695 14.2873L56.4318 16.3103L59.2202 21.8735H66.3903L58.9546 11.1264ZM52.05 2.52873C53.7762 2.52873 54.9712 2.90803 55.768 3.54021C56.4318 4.17239 56.6973 5.05746 56.6973 6.32183C56.6973 7.5862 56.1663 8.59767 55.2368 9.22986C54.44 9.60915 53.5107 9.98845 52.1828 10.1149C52.0765 10.1149 51.9606 10.124 51.8378 10.1372C51.7472 10.1469 51.6528 10.1589 51.5557 10.1713C51.2915 10.205 51.0069 10.2413 50.7223 10.2413H49.9256V2.52873H52.05Z" fill="white"/>
<path d="M77.8094 2.65514C78.4656 2.65714 79.6804 2.67235 80.5978 2.78154C81.7924 2.90795 82.9883 3.03459 84.1829 3.41373L83.3862 0.126404H65.1952L64.3986 3.41373C65.5933 3.03451 66.788 2.90803 67.9827 2.78154C68.9122 2.65514 70.3737 2.65514 71.0376 2.65514V14.5402C71.0376 16.3103 71.0376 17.3218 70.9049 18.7126C70.8123 19.329 70.6554 20.1909 70.5238 20.9135L70.5216 20.9257L70.5092 20.9934L70.4979 21.0559C70.4508 21.3152 70.4078 21.552 70.3737 21.747H78.4733C78.4574 21.6557 78.4395 21.5552 78.4201 21.4475C78.3907 21.2842 78.3579 21.1043 78.3234 20.9147C78.1918 20.1919 78.0348 19.3294 77.9422 18.7126C77.8094 17.3218 77.8094 16.3103 77.8094 14.5402V2.65514Z" fill="white"/>
<path d="M103.036 18.5867L103.038 18.5862L102.241 22H85.7762C85.7762 22 86.1746 19.8506 86.3074 18.9655C86.4401 18.2069 86.4402 17.7011 86.4402 16.1839V5.56324C86.4402 5.18387 86.407 4.80458 86.3738 4.42528C86.3622 4.29247 86.3506 4.15966 86.3403 4.02677C86.3215 3.78029 86.3074 3.5338 86.3074 3.28732V2.27584C86.1746 1.26437 86.0418 0.505777 85.7762 0H102.108L102.905 3.28732C102.741 3.26502 102.589 3.24272 102.438 3.22041C101.73 3.11631 101.023 3.01221 99.0543 2.90803C98.434 2.90803 97.4946 2.88048 96.4938 2.85107C95.3527 2.81751 94.1317 2.78162 93.2119 2.78162V9.10345C95.4692 9.10345 97.4609 8.97697 99.0543 8.85056C99.4284 8.85056 99.7604 8.81043 100.05 8.7754C100.275 8.74823 100.474 8.72416 100.648 8.72416H101.312L100.382 12.0115C99.6411 11.9528 99.1011 11.8939 98.5617 11.8352L98.5561 11.8345C98.3635 11.8135 98.1708 11.7925 97.969 11.7716C97.8526 11.7594 97.733 11.7473 97.6087 11.7352C97.2571 11.7009 96.867 11.6665 96.3987 11.6322C96.1314 11.6322 95.7994 11.6117 95.4029 11.5872C94.8148 11.5508 94.0844 11.5057 93.2119 11.5057V19.2184C95.6004 19.2184 98.1215 19.0921 100.643 18.9657L100.648 18.9655C101.709 18.8392 102.373 18.7129 103.036 18.5867Z" fill="white"/>
<path fill-rule="evenodd" clip-rule="evenodd" d="M121.096 11.1264C121.149 11.1264 121.18 11.1264 121.208 11.1184C121.235 11.1108 121.256 11.0959 121.289 11.0669C121.309 11.0499 121.331 11.0281 121.361 10.9999C122.291 10.6206 123.221 10.1149 124.017 9.48275C124.947 8.59767 125.478 7.5862 125.478 6.32183C125.478 5.05746 125.212 3.9195 124.813 3.16092C124.283 2.27584 123.618 1.64366 122.69 1.26437C121.892 0.884993 120.83 0.505698 119.768 0.379292C118.573 0.252809 117.246 0.126404 115.785 0.126404H104.764C105.03 0.632181 105.162 1.39077 105.295 2.40225C105.561 4.17239 105.561 5.81605 105.561 7.33331V16.1839C105.561 17.7011 105.561 18.2068 105.428 18.9655C105.295 19.8505 104.897 21.9999 104.897 21.9999H112.864C112.731 21.4942 112.598 20.7356 112.465 19.5977C112.2 17.8275 112.2 16.3103 112.2 14.6666V12.1379H113.926C115.519 12.1379 116.714 12.6437 117.511 14.2873L118.573 16.3103L121.361 21.8735H128.531L128.444 21.7471H129.063L129.992 19.2184C130.214 18.585 130.435 17.9958 130.648 17.4322C130.944 16.6456 131.221 15.909 131.452 15.1724C131.521 15.1908 131.597 15.2113 131.681 15.2338C132.748 15.5203 135.061 16.1405 137.029 17.1954C140.216 18.9655 141.411 21.4942 141.411 21.4942V21.6207H149.91C149.777 21.2413 149.378 20.4827 148.847 19.7242C148.102 18.509 147.444 17.0507 146.733 15.4788C146.556 15.088 146.376 14.6902 146.191 14.2873L140.084 0.252887H133.312L134.241 2.40233L129.063 13.908C128.878 14.26 128.693 14.6391 128.496 15.0455C128.266 15.515 128.02 16.021 127.735 16.5632C127.366 17.2648 127.036 17.9183 126.731 18.52C126.656 18.6678 126.584 18.8126 126.512 18.9541L121.096 11.1264ZM112.2 2.52873H114.191C115.917 2.52873 117.113 2.90803 117.909 3.54021C118.573 4.17239 118.839 5.05746 118.839 6.32183C118.839 7.5862 118.308 8.59767 117.378 9.22986C116.582 9.73556 115.652 10.1149 114.457 10.2413C114.272 10.2413 114.059 10.2686 113.829 10.2977C113.565 10.3314 113.281 10.3677 112.996 10.3677H112.2V2.52873ZM139.021 13.908L135.437 5.43676L132.382 13.023C132.602 13.0827 132.94 13.1847 133.368 13.314C134.754 13.7324 137.087 14.4366 139.42 14.9195C139.287 14.5402 139.154 14.2873 139.021 13.908Z" fill="white"/>
</g>
<defs>
<clipPath id="clip0_104_14">
<rect width="150" height="22" fill="white"/>
</clipPath>
</defs>
</svg>
