<svg width="63" height="40" viewBox="0 0 63 40" fill="none" xmlns="http://www.w3.org/2000/svg">
<path d="M13.2245 16.1174L13.2229 15.1288L13.7684 15.1279C13.9786 15.1276 14.1547 15.0861 14.2966 15.0035C14.4414 14.9209 14.5605 14.8142 14.654 14.6834C14.7504 14.5525 14.8298 14.416 14.892 14.2739L15.0279 13.9498L12.0004 7.27273L13.1425 7.27094L15.5543 12.6876L17.7447 7.26375L18.8697 7.262L15.8641 14.5792C15.7452 14.8521 15.6093 15.1052 15.4562 15.3384C15.306 15.5716 15.1003 15.7594 14.8392 15.9018C14.5809 16.0443 14.2302 16.1158 13.787 16.1165L13.2245 16.1174Z" fill="white"/>
<path d="M24.9599 6.97976L25.4722 7.59259C25.2736 7.78609 25.0437 7.92139 24.7825 7.9985C24.5212 8.07561 24.2258 8.12295 23.8963 8.14051C23.5668 8.15807 23.2004 8.17569 22.797 8.19336C22.3425 8.21112 21.9662 8.3225 21.6682 8.52751C21.3703 8.73253 21.1406 9.02834 20.9793 9.41496C20.818 9.80157 20.715 10.2762 20.6704 10.8387L20.7557 10.8386C20.9766 10.4292 21.283 10.1275 21.6747 9.93376C22.0664 9.73996 22.4867 9.64271 22.9356 9.64201C23.447 9.64121 23.9074 9.75981 24.3168 9.99781C24.7263 10.2358 25.0507 10.589 25.2901 11.0574C25.5295 11.5257 25.6497 12.1037 25.6508 12.7912C25.6518 13.4758 25.5306 14.0669 25.287 14.5645C25.0463 15.062 24.7075 15.4461 24.2704 15.7166C23.8361 15.9844 23.3264 16.1187 22.7412 16.1196C22.1559 16.1205 21.6429 15.9835 21.2022 15.7086C20.7614 15.4309 20.4184 15.0195 20.1733 14.4745C19.9281 13.9265 19.8049 13.2492 19.8036 12.4424L19.8025 11.7435C19.8002 10.2861 20.0457 9.18062 20.5388 8.42701C21.0348 7.67339 21.7813 7.28302 22.7785 7.25589C23.1307 7.24398 23.4446 7.24065 23.7202 7.2459C23.9958 7.25115 24.2358 7.23799 24.4403 7.20642C24.6448 7.17485 24.818 7.0993 24.9599 6.97976ZM22.7398 15.2162C23.1347 15.2156 23.474 15.1156 23.7578 14.9163C24.0444 14.717 24.2641 14.4368 24.417 14.0758C24.5698 13.7119 24.6458 13.2842 24.6451 12.7928C24.6443 12.3155 24.5656 11.9094 24.4088 11.5744C24.2549 11.2394 24.0343 10.984 23.7471 10.8084C23.4599 10.6327 23.116 10.5451 22.7154 10.5458C22.4228 10.5462 22.1601 10.5964 21.9273 10.6961C21.6945 10.7959 21.4959 10.9426 21.3314 11.136C21.1669 11.3294 21.0395 11.5654 20.949 11.844C20.8614 12.1225 20.815 12.4408 20.8098 12.7987C20.811 13.5317 20.9838 14.1181 21.3282 14.5579C21.6727 14.9977 22.1432 15.2171 22.7398 15.2162Z" fill="white"/>
<path d="M27.1979 18.4308L27.1839 9.43083L28.1554 9.42931L28.1571 10.4691L28.2764 10.4689C28.3501 10.3551 28.4521 10.2101 28.5825 10.0338C28.7158 9.85458 28.9059 9.69519 29.1528 9.5556C29.4026 9.41316 29.7405 9.34161 30.1667 9.34095C30.7178 9.34009 31.2038 9.47711 31.6247 9.75202C32.0456 10.0269 32.3743 10.417 32.6109 10.9224C32.8475 11.4277 32.9663 12.0241 32.9674 12.7116C32.9685 13.4048 32.8515 14.0058 32.6165 14.5147C32.3815 15.0207 32.0554 15.4133 31.6382 15.6923C31.2211 15.9686 30.7397 16.1071 30.1943 16.108C29.7738 16.1086 29.4371 16.0395 29.184 15.9007C28.931 15.7591 28.7361 15.5989 28.5995 15.4201C28.4628 15.2385 28.3575 15.0881 28.2834 14.9689L28.1982 14.969L28.2036 18.4293L27.1979 18.4308ZM28.1776 12.702C28.1784 13.1963 28.2515 13.6323 28.397 14.0099C28.5425 14.3847 28.7546 14.6784 29.0333 14.891C29.312 15.1008 29.6531 15.2054 30.0565 15.2048C30.477 15.2041 30.8276 15.0928 31.1086 14.8707C31.3923 14.6459 31.6049 14.3444 31.7463 13.9663C31.8906 13.5854 31.9624 13.162 31.9617 12.6961C31.961 12.2359 31.8893 11.8212 31.7467 11.4521C31.6069 11.0802 31.3948 10.7865 31.1104 10.571C30.8288 10.3527 30.4749 10.2439 30.0488 10.2445C29.6397 10.2452 29.2961 10.3494 29.018 10.5572C28.7399 10.7622 28.5301 11.0495 28.3887 11.419C28.2472 11.7857 28.1768 12.2134 28.1776 12.702Z" fill="white"/>
<path d="M36.4329 16.1153C36.0182 16.1159 35.6416 16.0384 35.3033 15.8826C34.965 15.7241 34.6962 15.4958 34.4969 15.1978C34.2975 14.897 34.1975 14.5335 34.1969 14.1074C34.1963 13.7324 34.2697 13.4283 34.417 13.1951C34.5644 12.9591 34.7615 12.7741 35.0085 12.6402C35.2554 12.5063 35.528 12.4064 35.8262 12.3406C36.1272 12.272 36.4297 12.2175 36.7336 12.1773C37.1313 12.1255 37.4536 12.0867 37.7008 12.0607C37.9507 12.0319 38.1325 11.9848 38.246 11.9192C38.3624 11.8537 38.4204 11.74 38.4202 11.5781L38.4201 11.544C38.4195 11.1235 38.3039 10.797 38.0734 10.5644C37.8458 10.3318 37.5004 10.2159 37.0374 10.2166C36.5573 10.2173 36.181 10.323 35.9086 10.5337C35.6362 10.7443 35.4448 10.9691 35.3344 11.2079L34.3793 10.8685C34.5491 10.4705 34.7759 10.1605 35.0597 9.93842C35.3462 9.71354 35.6585 9.5568 35.9964 9.4682C36.3372 9.37676 36.6724 9.33078 37.0019 9.33027C37.2121 9.32994 37.4536 9.35513 37.7264 9.40584C38.0021 9.45371 38.2679 9.55414 38.5238 9.70715C38.7826 9.86016 38.9974 10.0914 39.1683 10.4008C39.3393 10.7101 39.4252 11.1248 39.426 11.6447L39.4327 15.9572L38.427 15.9587L38.4256 15.0724L38.3745 15.0725C38.3065 15.2146 38.1931 15.3668 38.0343 15.5289C37.8755 15.6911 37.664 15.8292 37.4 15.9433C37.136 16.0573 36.8136 16.1147 36.4329 16.1153ZM36.5849 15.2116C36.9827 15.211 37.3178 15.1323 37.5903 14.9757C37.8656 14.819 38.0727 14.617 38.2115 14.3696C38.3531 14.1222 38.4237 13.8621 38.4233 13.5894L38.4219 12.669C38.3794 12.7202 38.2857 12.7672 38.1409 12.81C37.9989 12.85 37.8342 12.8858 37.6467 12.9173C37.4621 12.946 37.2817 12.9719 37.1056 12.9949C36.9324 13.015 36.7918 13.0323 36.6838 13.0467C36.4225 13.0812 36.1783 13.137 35.9511 13.214C35.7268 13.2882 35.5452 13.4007 35.4062 13.5515C35.2701 13.6995 35.2022 13.9013 35.2026 14.157C35.2032 14.5064 35.3328 14.7704 35.5916 14.949C35.8533 15.1247 36.1844 15.2122 36.5849 15.2116Z" fill="white"/>
<path d="M40.3689 10.3477L40.3674 9.41024L45.6856 9.40193L45.6871 10.3394L43.5394 10.3428L43.5481 15.9507L42.5424 15.9523L42.5337 10.3444L40.3689 10.3477Z" fill="white"/>
<path d="M48.0256 11.7676L49.9006 11.7647C50.6676 11.7635 51.2546 11.9572 51.6615 12.3457C52.0683 12.7343 52.2722 13.2269 52.2731 13.8235C52.2737 14.2155 52.1834 14.5722 52.0021 14.8935C51.8208 15.212 51.5541 15.4666 51.2021 15.6575C50.8502 15.8456 50.4185 15.94 49.9071 15.9408L47.1628 15.9451L47.1526 9.39964L48.1583 9.39807L48.167 15.006L49.9057 15.0033C50.3034 15.0027 50.6299 14.8971 50.8853 14.6864C51.1406 14.4758 51.2681 14.2057 51.2675 13.8762C51.267 13.5296 51.1387 13.2471 50.8827 13.0288C50.6267 12.8104 50.2998 12.7015 49.9021 12.7022L48.0271 12.7051L48.0256 11.7676Z" fill="white"/>
<path d="M24.7473 33.2131L24.7302 22.2529L25.7358 22.2513L25.753 33.2115L24.7473 33.2131ZM24.744 31.1165C24.3008 31.1172 23.8973 31.0383 23.5334 30.8797C23.1695 30.7184 22.8567 30.4902 22.5948 30.1951C22.333 29.8972 22.1307 29.541 21.9881 29.1265C21.8454 28.7119 21.7736 28.2518 21.7728 27.7461C21.772 27.2348 21.8423 26.7716 21.9837 26.3566C22.1251 25.9388 22.3263 25.5805 22.5872 25.2818C22.8481 24.9831 23.1602 24.7539 23.5236 24.5942C23.887 24.4317 24.2903 24.3501 24.7334 24.3495L25.0403 24.349L25.0508 31.116L24.744 31.1165ZM24.7426 30.2131L24.913 30.2128L24.9053 25.2526L24.7348 25.2529C24.3996 25.2534 24.1085 25.322 23.8616 25.4588C23.6146 25.5927 23.4104 25.7762 23.2488 26.0094C23.0901 26.2398 22.9712 26.5042 22.8921 26.8026C22.8159 27.101 22.778 27.415 22.7785 27.7446C22.7792 28.1821 22.8494 28.5882 22.9892 28.963C23.129 29.3378 23.344 29.64 23.6341 29.8696C23.9242 30.0993 24.2937 30.2138 24.7426 30.2131ZM25.7497 31.1149L25.4429 31.1154L25.4323 24.3484L25.7391 24.3479C26.1823 24.3472 26.5858 24.4275 26.9497 24.5889C27.3136 24.7474 27.6265 24.9756 27.8883 25.2735C28.1501 25.5714 28.3524 25.929 28.4951 26.3464C28.6378 26.761 28.7095 27.2239 28.7103 27.7353C28.7111 28.241 28.6408 28.7013 28.4994 29.1163C28.358 29.5313 28.1569 29.8881 27.896 30.1868C27.6351 30.4827 27.3229 30.7119 26.9595 30.8744C26.5962 31.0341 26.1929 31.1142 25.7497 31.1149ZM25.7483 30.2115C26.0863 30.211 26.3774 30.1452 26.6215 30.0141C26.8685 29.8802 27.0713 29.6981 27.2301 29.4677C27.3916 29.2345 27.5105 28.9701 27.5868 28.6745C27.6659 28.3761 27.7051 28.0636 27.7046 27.7369C27.704 27.2994 27.6337 26.8918 27.4939 26.5142C27.3541 26.1366 27.1392 25.8315 26.849 25.599C26.5589 25.3665 26.1894 25.2506 25.7405 25.2513L25.5701 25.2516L25.5778 30.2118L25.7483 30.2115Z" fill="white"/>
<path d="M32.912 31.1037C32.3211 31.1047 31.8024 30.9648 31.3559 30.6843C30.9123 30.4037 30.5651 30.0108 30.3143 29.5055C30.0663 29.0002 29.9418 28.4095 29.9408 27.7334C29.9397 27.0516 30.0624 26.4562 30.3087 25.9473C30.5579 25.4384 30.9039 25.0429 31.3467 24.761C31.7922 24.4791 32.3105 24.3376 32.9014 24.3367C33.4923 24.3358 34.0096 24.4756 34.4532 24.7561C34.8996 25.0367 35.2469 25.431 35.4948 25.9392C35.7456 26.4473 35.8715 27.0423 35.8726 27.7241C35.8737 28.4002 35.7496 28.9913 35.5004 29.4974C35.254 30.0035 34.908 30.3975 34.4624 30.6794C34.0197 30.9614 33.5029 31.1028 32.912 31.1037ZM32.9106 30.2003C33.3594 30.1996 33.7286 30.084 34.018 29.8534C34.3074 29.6229 34.5214 29.32 34.66 28.9447C34.7986 28.5695 34.8676 28.1632 34.8669 27.7257C34.8662 27.2882 34.796 26.8806 34.6562 26.503C34.5164 26.1254 34.3014 25.8203 34.0113 25.5878C33.7212 25.3553 33.3517 25.2394 32.9028 25.2401C32.4539 25.2408 32.0848 25.3579 31.7954 25.5913C31.506 25.8247 31.292 26.1304 31.1534 26.5085C31.0147 26.8865 30.9458 27.2943 30.9465 27.7318C30.9472 28.1693 31.0174 28.5754 31.1572 28.9502C31.297 29.325 31.5119 29.6272 31.8021 29.8569C32.0922 30.0865 32.4617 30.201 32.9106 30.2003Z" fill="white"/>
<path d="M41.7877 27.2205L41.7891 28.158L38.1755 28.1637L38.174 27.2262L41.7877 27.2205ZM38.4083 24.4133L38.4185 30.9588L37.4128 30.9603L37.4026 24.4149L38.4083 24.4133ZM42.5503 24.4069L42.5605 30.9523L41.5549 30.9539L41.5446 24.4084L42.5503 24.4069Z" fill="white"/>
</svg>
