<svg width="70" height="37" viewBox="0 0 70 37" fill="none" xmlns="http://www.w3.org/2000/svg">
<path d="M15.1367 15.0801V16H8.67969V15.0801H15.1367ZM8.86133 15.0801V18.0977H7.74219L7.73633 15.0801H8.86133ZM16.1211 15.0801L16.1094 18.0918H14.9902V15.0801H16.1211ZM14.0293 7.46875V8.39453H10.291V7.46875H14.0293ZM15.002 7.46875V16H13.877V7.46875H15.002ZM9.9043 7.46875H11.0352L10.8594 10.9023C10.8359 11.418 10.7871 11.8945 10.7129 12.332C10.6387 12.7656 10.5469 13.1621 10.4375 13.5215C10.3281 13.8809 10.2031 14.2031 10.0625 14.4883C9.92188 14.7695 9.77148 15.0137 9.61133 15.2207C9.45117 15.4238 9.2832 15.5918 9.10742 15.7246C8.93555 15.8535 8.76172 15.9453 8.58594 16H8.07031V15.0801H8.43359C8.53516 14.9707 8.65039 14.8125 8.7793 14.6055C8.91211 14.3984 9.04297 14.1309 9.17188 13.8027C9.30469 13.4707 9.41992 13.0664 9.51758 12.5898C9.61914 12.1133 9.6875 11.5508 9.72266 10.9023L9.9043 7.46875ZM17 12.9004V12.7656C17 12.3086 17.0664 11.8848 17.1992 11.4941C17.332 11.0996 17.5234 10.7578 17.7734 10.4688C18.0234 10.1758 18.3262 9.94922 18.6816 9.78906C19.0371 9.625 19.4355 9.54297 19.877 9.54297C20.3223 9.54297 20.7227 9.625 21.0781 9.78906C21.4375 9.94922 21.7422 10.1758 21.9922 10.4688C22.2461 10.7578 22.4395 11.0996 22.5723 11.4941C22.7051 11.8848 22.7715 12.3086 22.7715 12.7656V12.9004C22.7715 13.3574 22.7051 13.7812 22.5723 14.1719C22.4395 14.5625 22.2461 14.9043 21.9922 15.1973C21.7422 15.4863 21.4395 15.7129 21.084 15.877C20.7324 16.0371 20.334 16.1172 19.8887 16.1172C19.4434 16.1172 19.043 16.0371 18.6875 15.877C18.332 15.7129 18.0273 15.4863 17.7734 15.1973C17.5234 14.9043 17.332 14.5625 17.1992 14.1719C17.0664 13.7812 17 13.3574 17 12.9004ZM18.084 12.7656V12.9004C18.084 13.2168 18.1211 13.5156 18.1953 13.7969C18.2695 14.0742 18.3809 14.3203 18.5293 14.5352C18.6816 14.75 18.8711 14.9199 19.0977 15.0449C19.3242 15.166 19.5879 15.2266 19.8887 15.2266C20.1855 15.2266 20.4453 15.166 20.668 15.0449C20.8945 14.9199 21.082 14.75 21.2305 14.5352C21.3789 14.3203 21.4902 14.0742 21.5645 13.7969C21.6426 13.5156 21.6816 13.2168 21.6816 12.9004V12.7656C21.6816 12.4531 21.6426 12.1582 21.5645 11.8809C21.4902 11.5996 21.377 11.3516 21.2246 11.1367C21.0762 10.918 20.8887 10.7461 20.6621 10.6211C20.4395 10.4961 20.1777 10.4336 19.877 10.4336C19.5801 10.4336 19.3184 10.4961 19.0918 10.6211C18.8691 10.7461 18.6816 10.918 18.5293 11.1367C18.3809 11.3516 18.2695 11.5996 18.1953 11.8809C18.1211 12.1582 18.084 12.4531 18.084 12.7656ZM28.1973 6.90039H29.0879C29.0879 7.2832 29.0293 7.58789 28.9121 7.81445C28.7949 8.03711 28.6348 8.20898 28.4316 8.33008C28.2324 8.45117 28.0059 8.54297 27.752 8.60547C27.502 8.66797 27.2422 8.72852 26.9727 8.78711C26.6367 8.85742 26.3242 8.96875 26.0352 9.12109C25.75 9.26953 25.5039 9.48047 25.2969 9.75391C25.0938 10.0273 24.9434 10.3828 24.8457 10.8203C24.752 11.2578 24.7266 11.7988 24.7695 12.4434V12.9824H23.8789V12.4434C23.8789 11.7207 23.9473 11.0898 24.084 10.5508C24.2246 10.0117 24.4219 9.55664 24.6758 9.18555C24.9297 8.81445 25.2305 8.51953 25.5781 8.30078C25.9297 8.08203 26.3164 7.93164 26.7383 7.84961C27.043 7.79102 27.3047 7.72852 27.5234 7.66211C27.7422 7.5918 27.9082 7.49805 28.0215 7.38086C28.1387 7.26367 28.1973 7.10352 28.1973 6.90039ZM26.9141 10.0234C27.3281 10.0234 27.6973 10.0957 28.0215 10.2402C28.3457 10.3848 28.6211 10.5859 28.8477 10.8438C29.0742 11.1016 29.2461 11.4062 29.3633 11.7578C29.4844 12.1055 29.5449 12.4844 29.5449 12.8945V13.0234C29.5449 13.4648 29.4805 13.875 29.3516 14.2539C29.2266 14.6289 29.041 14.957 28.7949 15.2383C28.5527 15.5156 28.2559 15.7324 27.9043 15.8887C27.5566 16.0449 27.1602 16.123 26.7148 16.123C26.2695 16.123 25.8711 16.0449 25.5195 15.8887C25.1719 15.7324 24.875 15.5156 24.6289 15.2383C24.3828 14.957 24.1953 14.6289 24.0664 14.2539C23.9414 13.875 23.8789 13.4648 23.8789 13.0234V12.8945C23.8789 12.7969 23.8965 12.7012 23.9316 12.6074C23.9668 12.5137 24.0098 12.418 24.0605 12.3203C24.1152 12.2227 24.1641 12.1191 24.207 12.0098C24.3516 11.6582 24.5488 11.332 24.7988 11.0312C25.0527 10.7305 25.3555 10.4883 25.707 10.3047C26.0625 10.1172 26.4648 10.0234 26.9141 10.0234ZM26.7031 10.9082C26.3047 10.9082 25.9766 11 25.7188 11.1836C25.4648 11.3672 25.2754 11.6113 25.1504 11.916C25.0254 12.2168 24.9629 12.543 24.9629 12.8945V13.0234C24.9629 13.3203 24.998 13.6016 25.0684 13.8672C25.1387 14.1328 25.2441 14.3691 25.3848 14.5762C25.5293 14.7793 25.7109 14.9395 25.9297 15.0566C26.1523 15.1738 26.4141 15.2324 26.7148 15.2324C27.0156 15.2324 27.2754 15.1738 27.4941 15.0566C27.7129 14.9395 27.8926 14.7793 28.0332 14.5762C28.1738 14.3691 28.2793 14.1328 28.3496 13.8672C28.4199 13.6016 28.4551 13.3203 28.4551 13.0234V12.8945C28.4551 12.6289 28.4199 12.377 28.3496 12.1387C28.2793 11.9004 28.1719 11.6895 28.0273 11.5059C27.8867 11.3223 27.7051 11.1777 27.4824 11.0723C27.2637 10.9629 27.0039 10.9082 26.7031 10.9082ZM34.5137 14.916V11.6523C34.5137 11.4023 34.4629 11.1855 34.3613 11.002C34.2637 10.8145 34.1152 10.6699 33.916 10.5684C33.7168 10.4668 33.4707 10.416 33.1777 10.416C32.9043 10.416 32.6641 10.4629 32.457 10.5566C32.2539 10.6504 32.0938 10.7734 31.9766 10.9258C31.8633 11.0781 31.8066 11.2422 31.8066 11.418H30.7227C30.7227 11.1914 30.7812 10.9668 30.8984 10.7441C31.0156 10.5215 31.1836 10.3203 31.4023 10.1406C31.625 9.95703 31.8906 9.8125 32.1992 9.70703C32.5117 9.59766 32.8594 9.54297 33.2422 9.54297C33.7031 9.54297 34.1094 9.62109 34.4609 9.77734C34.8164 9.93359 35.0938 10.1699 35.293 10.4863C35.4961 10.7988 35.5977 11.1914 35.5977 11.6641V14.6172C35.5977 14.8281 35.6152 15.0527 35.6504 15.291C35.6895 15.5293 35.7461 15.7344 35.8203 15.9062V16H34.6895C34.6348 15.875 34.5918 15.709 34.5605 15.502C34.5293 15.291 34.5137 15.0957 34.5137 14.916ZM34.7012 12.1562L34.7129 12.918H33.6172C33.3086 12.918 33.0332 12.9434 32.791 12.9941C32.5488 13.041 32.3457 13.1133 32.1816 13.2109C32.0176 13.3086 31.8926 13.4316 31.8066 13.5801C31.7207 13.7246 31.6777 13.8945 31.6777 14.0898C31.6777 14.2891 31.7227 14.4707 31.8125 14.6348C31.9023 14.7988 32.0371 14.9297 32.2168 15.0273C32.4004 15.1211 32.625 15.168 32.8906 15.168C33.2227 15.168 33.5156 15.0977 33.7695 14.957C34.0234 14.8164 34.2246 14.6445 34.373 14.4414C34.5254 14.2383 34.6074 14.041 34.6191 13.8496L35.082 14.3711C35.0547 14.5352 34.9805 14.7168 34.8594 14.916C34.7383 15.1152 34.5762 15.3066 34.373 15.4902C34.1738 15.6699 33.9355 15.8203 33.6582 15.9414C33.3848 16.0586 33.0762 16.1172 32.7324 16.1172C32.3027 16.1172 31.9258 16.0332 31.6016 15.8652C31.2812 15.6973 31.0312 15.4727 30.8516 15.1914C30.6758 14.9062 30.5879 14.5879 30.5879 14.2363C30.5879 13.8965 30.6543 13.5977 30.7871 13.3398C30.9199 13.0781 31.1113 12.8613 31.3613 12.6895C31.6113 12.5137 31.9121 12.3809 32.2637 12.291C32.6152 12.2012 33.0078 12.1562 33.4414 12.1562H34.7012ZM40.2793 13.2109H38.1992L38.1875 12.3438H39.8867C40.2227 12.3438 40.502 12.3105 40.7246 12.2441C40.9512 12.1777 41.1211 12.0781 41.2344 11.9453C41.3477 11.8125 41.4043 11.6484 41.4043 11.4531C41.4043 11.3008 41.3711 11.168 41.3047 11.0547C41.2422 10.9375 41.1465 10.8418 41.0176 10.7676C40.8887 10.6895 40.7285 10.6328 40.5371 10.5977C40.3496 10.5586 40.1289 10.5391 39.875 10.5391H38.4863V16H37.4023V9.66016H39.875C40.2773 9.66016 40.6387 9.69531 40.959 9.76562C41.2832 9.83594 41.5586 9.94336 41.7852 10.0879C42.0156 10.2285 42.1914 10.4082 42.3125 10.627C42.4336 10.8457 42.4941 11.1035 42.4941 11.4004C42.4941 11.5918 42.4551 11.7734 42.377 11.9453C42.2988 12.1172 42.1836 12.2695 42.0312 12.4023C41.8789 12.5352 41.6914 12.6445 41.4688 12.7305C41.2461 12.8125 40.9902 12.8652 40.7012 12.8887L40.2793 13.2109ZM40.2793 16H37.8066L38.3457 15.1211H40.2793C40.5801 15.1211 40.8301 15.084 41.0293 15.0098C41.2285 14.9316 41.377 14.8223 41.4746 14.6816C41.5762 14.5371 41.627 14.3652 41.627 14.166C41.627 13.9668 41.5762 13.7969 41.4746 13.6562C41.377 13.5117 41.2285 13.4023 41.0293 13.3281C40.8301 13.25 40.5801 13.2109 40.2793 13.2109H38.6328L38.6445 12.3438H40.7012L41.0938 12.6719C41.4414 12.6992 41.7363 12.7852 41.9785 12.9297C42.2207 13.0742 42.4043 13.2578 42.5293 13.4805C42.6543 13.6992 42.7168 13.9375 42.7168 14.1953C42.7168 14.4922 42.6602 14.7539 42.5469 14.9805C42.4375 15.207 42.2773 15.3965 42.0664 15.5488C41.8555 15.6973 41.5996 15.8105 41.2988 15.8887C40.998 15.9629 40.6582 16 40.2793 16ZM45.3418 14.2832L48.2656 9.66016H49.3555V16H48.2656V11.377L45.3418 16H44.2637V9.66016H45.3418V14.2832ZM53.6797 9.66016V16H52.5898V9.66016H53.6797ZM55.8066 9.66016V10.5391H50.5039V9.66016H55.8066ZM57.7637 11.8398H59.668C60.1797 11.8398 60.6113 11.9297 60.9629 12.1094C61.3145 12.2852 61.5801 12.5293 61.7598 12.8418C61.9434 13.1504 62.0352 13.502 62.0352 13.8965C62.0352 14.1895 61.9844 14.4648 61.8828 14.7227C61.7812 14.9766 61.6289 15.1992 61.4258 15.3906C61.2266 15.582 60.9785 15.7324 60.6816 15.8418C60.3887 15.9473 60.0508 16 59.668 16H56.9727V9.66016H58.0566V15.1094H59.668C59.9805 15.1094 60.2305 15.0527 60.418 14.9395C60.6055 14.8262 60.7402 14.6797 60.8223 14.5C60.9043 14.3203 60.9453 14.1328 60.9453 13.9375C60.9453 13.7461 60.9043 13.5586 60.8223 13.375C60.7402 13.1914 60.6055 13.0391 60.418 12.918C60.2305 12.793 59.9805 12.7305 59.668 12.7305H57.7637V11.8398ZM23.3457 23.6602V30H22.2559V23.6602H23.3457ZM25.4727 23.6602V24.5391H20.1699V23.6602H25.4727ZM28.7012 30.1172C28.2598 30.1172 27.8594 30.043 27.5 29.8945C27.1445 29.7422 26.8379 29.5293 26.5801 29.2559C26.3262 28.9824 26.1309 28.6582 25.9941 28.2832C25.8574 27.9082 25.7891 27.498 25.7891 27.0527V26.8066C25.7891 26.291 25.8652 25.832 26.0176 25.4297C26.1699 25.0234 26.377 24.6797 26.6387 24.3984C26.9004 24.1172 27.1973 23.9043 27.5293 23.7598C27.8613 23.6152 28.2051 23.543 28.5605 23.543C29.0137 23.543 29.4043 23.6211 29.7324 23.7773C30.0645 23.9336 30.3359 24.1523 30.5469 24.4336C30.7578 24.7109 30.9141 25.0391 31.0156 25.418C31.1172 25.793 31.168 26.2031 31.168 26.6484V27.1348H26.4336V26.25H30.084V26.168C30.0684 25.8867 30.0098 25.6133 29.9082 25.3477C29.8105 25.082 29.6543 24.8633 29.4395 24.6914C29.2246 24.5195 28.9316 24.4336 28.5605 24.4336C28.3145 24.4336 28.0879 24.4863 27.8809 24.5918C27.6738 24.6934 27.4961 24.8457 27.3477 25.0488C27.1992 25.252 27.084 25.5 27.002 25.793C26.9199 26.0859 26.8789 26.4238 26.8789 26.8066V27.0527C26.8789 27.3535 26.9199 27.6367 27.002 27.9023C27.0879 28.1641 27.2109 28.3945 27.3711 28.5938C27.5352 28.793 27.7324 28.9492 27.9629 29.0625C28.1973 29.1758 28.4629 29.2324 28.7598 29.2324C29.1426 29.2324 29.4668 29.1543 29.7324 28.998C29.998 28.8418 30.2305 28.6328 30.4297 28.3711L31.0859 28.8926C30.9492 29.0996 30.7754 29.2969 30.5645 29.4844C30.3535 29.6719 30.0938 29.8242 29.7852 29.9414C29.4805 30.0586 29.1191 30.1172 28.7012 30.1172ZM33.6113 23.6602V30H32.5273V23.6602H33.6113ZM37.7715 23.6602L34.7656 27.293H33.248L33.084 26.3438H34.3262L36.4531 23.6602H37.7715ZM36.6055 30L34.2734 27.1289L34.9707 26.3438L37.9824 30H36.6055ZM41.3691 29.2266C41.627 29.2266 41.8652 29.1738 42.084 29.0684C42.3027 28.9629 42.4824 28.8184 42.623 28.6348C42.7637 28.4473 42.8438 28.2344 42.8633 27.9961H43.8945C43.875 28.3711 43.748 28.7207 43.5137 29.0449C43.2832 29.3652 42.9805 29.625 42.6055 29.8242C42.2305 30.0195 41.8184 30.1172 41.3691 30.1172C40.8926 30.1172 40.4766 30.0332 40.1211 29.8652C39.7695 29.6973 39.4766 29.4668 39.2422 29.1738C39.0117 28.8809 38.8379 28.5449 38.7207 28.166C38.6074 27.7832 38.5508 27.3789 38.5508 26.9531V26.707C38.5508 26.2812 38.6074 25.8789 38.7207 25.5C38.8379 25.1172 39.0117 24.7793 39.2422 24.4863C39.4766 24.1934 39.7695 23.9629 40.1211 23.7949C40.4766 23.627 40.8926 23.543 41.3691 23.543C41.8652 23.543 42.2988 23.6445 42.6699 23.8477C43.041 24.0469 43.332 24.3203 43.543 24.668C43.7578 25.0117 43.875 25.4023 43.8945 25.8398H42.8633C42.8438 25.5781 42.7695 25.3418 42.6406 25.1309C42.5156 24.9199 42.3438 24.752 42.125 24.627C41.9102 24.498 41.6582 24.4336 41.3691 24.4336C41.0371 24.4336 40.7578 24.5 40.5312 24.6328C40.3086 24.7617 40.1309 24.9375 39.998 25.1602C39.8691 25.3789 39.7754 25.623 39.7168 25.8926C39.6621 26.1582 39.6348 26.4297 39.6348 26.707V26.9531C39.6348 27.2305 39.6621 27.5039 39.7168 27.7734C39.7715 28.043 39.8633 28.2871 39.9922 28.5059C40.125 28.7246 40.3027 28.9004 40.5254 29.0332C40.752 29.1621 41.0332 29.2266 41.3691 29.2266ZM47.6973 23.6602V30H46.6074V23.6602H47.6973ZM49.8242 23.6602V24.5391H44.5215V23.6602H49.8242Z" fill="white"/>
</svg>
